<?xml version="1.0" encoding="UTF-8" standalone="no"?><!DOCTYPE svg PUBLIC "-//W3C//DTD SVG 1.1//EN" "http://www.w3.org/Graphics/SVG/1.1/DTD/svg11.dtd"><svg width="100%" height="100%" viewBox="0 0 13668 9327" version="1.1" xmlns="http://www.w3.org/2000/svg" xmlns:xlink="http://www.w3.org/1999/xlink" xml:space="preserve" xmlns:serif="http://www.serif.com/" style="fill-rule:evenodd;clip-rule:evenodd;"><rect id="Mesa-de-trabajo1" serif:id="Mesa de trabajo1" x="0" y="0" width="13667.6" height="9326.44" style="fill:none;"/><path d="M2841.81,8130.84l1331.71,-2306.55l1331.65,2306.55l-2663.35,0Z" style="fill:none;fill-rule:nonzero;stroke:#000;stroke-width:17.52px;"/><path d="M5530.54,8130.84l1331.65,-2306.55l1331.65,2306.55l-2663.29,0Z" style="fill:none;fill-rule:nonzero;stroke:#000;stroke-width:17.52px;"/><path d="M8206.83,8130.84l1331.65,-2306.55l1331.68,2306.55l-2663.32,0Z" style="fill:none;fill-rule:nonzero;stroke:#000;stroke-width:17.52px;"/><path d="M4187.39,5800.9l1331.65,-2306.49l1331.71,2306.49l-2663.35,0Z" style="fill:none;fill-rule:nonzero;stroke:#000;stroke-width:17.52px;"/><path d="M6867.27,5800.9l1331.68,-2306.49l1331.68,2306.49l-2663.35,0Z" style="fill:none;fill-rule:nonzero;stroke:#000;stroke-width:17.52px;"/><path d="M5531.59,3476.98l1331.68,-2306.49l1331.59,2306.49l-2663.26,0Z" style="fill:none;fill-rule:nonzero;stroke:#000;stroke-width:17.52px;"/><circle cx="6857.31" cy="1133.43" r="176.506"/><circle cx="8194.39" cy="3479.96" r="176.535"/><circle cx="9530.62" cy="5808.73" r="176.535"/><circle cx="10870.2" cy="8130.87" r="176.535"/><circle cx="8194.39" cy="8130.87" r="176.535"/><circle cx="5540.82" cy="8130.87" r="176.506"/><circle cx="2841.81" cy="8130.87" r="176.535"/><circle cx="4187.39" cy="5808.73" r="176.535"/><circle cx="6857.31" cy="5808.73" r="176.535"/><circle cx="5540.82" cy="3479.96" r="176.506"/><rect x="1941.88" y="603.479" width="9861.03" height="8254.85" style="fill:none;"/></svg>