<?xml version="1.0" encoding="UTF-8" standalone="no"?>
<!DOCTYPE svg PUBLIC "-//W3C//DTD SVG 1.1//EN" "https://www.w3.org/Graphics/SVG/1.1/DTD/svg11.dtd">
<svg width="100%" height="100%" viewBox="0 0 57 39" version="1.1" xmlns="http://www.w3.org/2000/svg" xmlns:xlink="https://www.w3.org/1999/xlink" xml:space="preserve" xmlns:serif="https://www.serif.com/" style="fill-rule:evenodd;clip-rule:evenodd;stroke-linecap:round;stroke-linejoin:round;stroke-miterlimit:1.5;">
    <g transform="matrix(1,0,0,1,-273.761,-177.667)">
        <g transform="matrix(0.159851,0,0,0.131679,-8729.42,6.65869)">
            <g transform="matrix(0.107064,0,0,0.129864,54821.7,1042.87)">
                <circle cx="15135.5" cy="3089.34" r="1097.64" style="fill:none;stroke:black;stroke-width:43.84px;stroke-dasharray:43.84,131.52,0,0;"/>
            </g>
            <g transform="matrix(0.107064,0,0,0.129864,54939.2,1042.87)">
                <circle cx="15135.5" cy="3089.34" r="1097.64" style="fill:none;stroke:black;stroke-width:26.3px;"/>
            </g>
            <g transform="matrix(2.77556e-17,0.196678,-0.0966936,8.32667e-17,59616.9,-2481.81)">
                <path d="M19961,30959.1L19961,33454.4" style="fill:none;"/>
                <path d="M19941.7,30959.1C19941.7,30980.6 19941.7,31002.2 19941.7,31023.8L19980.3,31023.8L19980.3,30959.1L19941.7,30959.1ZM19941.7,31541.3C19941.7,31562.9 19941.7,31584.5 19941.7,31606L19980.3,31606C19980.3,31584.5 19980.3,31562.9 19980.3,31541.3L19941.7,31541.3ZM19941.7,32123.6L19941.7,32188.3L19980.3,32188.3L19980.3,32123.6L19941.7,32123.6ZM19941.7,32705.9C19941.7,32727.5 19941.7,32749 19941.7,32770.6L19980.3,32770.6C19980.3,32749 19980.3,32727.5 19980.3,32705.9L19941.7,32705.9ZM19941.7,33288.2C19941.7,33309.7 19941.7,33331.3 19941.7,33352.9L19980.3,33352.9C19980.3,33331.3 19980.3,33309.7 19980.3,33288.2L19941.7,33288.2Z"/>
            </g>
            <g transform="matrix(0.00570281,0,0,0.00691722,56473.4,1422.7)">
                <circle cx="15135.5" cy="3089.34" r="1097.64"/>
            </g>
            <g transform="matrix(0.00570281,0,0,0.00691722,56355.8,1422.7)">
                <circle cx="15135.5" cy="3089.34" r="1097.64"/>
            </g>
            <g transform="matrix(0.00570281,0,0,0.00691722,56415.1,1299.4)">
                <circle cx="15135.5" cy="3089.34" r="1097.64"/>
            </g>
            <g transform="matrix(0.00570281,0,0,0.00691722,56414.8,1545.34)">
                <circle cx="15135.5" cy="3089.34" r="1097.64"/>
            </g>
        </g>
    </g>
</svg>
