<?xml version="1.0" encoding="UTF-8" standalone="no"?>
<!DOCTYPE svg PUBLIC "-//W3C//DTD SVG 1.1//EN" "https://www.w3.org/Graphics/SVG/1.1/DTD/svg11.dtd">
<svg width="100%" height="100%" viewBox="0 0 37 57" version="1.1" xmlns="http://www.w3.org/2000/svg" xmlns:xlink="https://www.w3.org/1999/xlink" xml:space="preserve" xmlns:serif="https://www.serif.com/" style="fill-rule:evenodd;clip-rule:evenodd;">
    <g transform="matrix(1,0,0,1,-524.854,-201.436)">
        <g transform="matrix(0.2073,0,0,0.17116,-10928.7,-76.8893)">
            <g transform="matrix(0.526742,0,0,0.637961,55251,1626.11)">
                <path d="M30.816,257.756L76.417,178.774L122.016,257.756L30.816,257.756Z" style="fill:none;fill-rule:nonzero;stroke:black;stroke-width:0.6px;"/>
            </g>
            <g transform="matrix(0.526742,0,0,0.637961,55251,1626.11)">
                <path d="M122.885,257.756L168.484,178.774L214.083,257.756L122.885,257.756Z" style="fill:none;fill-rule:nonzero;stroke:black;stroke-width:0.6px;"/>
            </g>
            <g transform="matrix(0.526742,0,0,0.637961,55251,1626.11)">
                <path d="M214.528,257.756L260.127,178.774L305.727,257.756L214.528,257.756Z" style="fill:none;fill-rule:nonzero;stroke:black;stroke-width:0.6px;"/>
            </g>
            <g transform="matrix(0.526742,0,0,0.637961,55251,1626.11)">
                <path d="M76.892,177.973L122.491,98.993L168.092,177.973L76.892,177.973Z" style="fill:none;fill-rule:nonzero;stroke:black;stroke-width:0.6px;"/>
            </g>
            <g transform="matrix(0.526742,0,0,0.637961,55251,1626.11)">
                <path d="M168.658,177.973L214.258,98.993L259.858,177.973L168.658,177.973Z" style="fill:none;fill-rule:nonzero;stroke:black;stroke-width:0.6px;"/>
            </g>
            <g transform="matrix(0.526742,0,0,0.637961,55251,1626.11)">
                <path d="M122.921,98.396L168.521,19.416L214.118,98.396L122.921,98.396Z" style="fill:none;fill-rule:nonzero;stroke:black;stroke-width:0.6px;"/>
            </g>
            <g transform="matrix(0.526742,0,0,0.637961,55251,1626.11)">
                <circle cx="168.317" cy="18.147" r="6.044"/>
            </g>
            <g transform="matrix(0.526742,0,0,0.637961,55251,1626.11)">
                <circle cx="214.102" cy="98.498" r="6.045"/>
            </g>
            <g transform="matrix(0.526742,0,0,0.637961,55251,1626.11)">
                <circle cx="259.858" cy="178.241" r="6.045"/>
            </g>
            <g transform="matrix(0.526742,0,0,0.637961,55251,1626.11)">
                <circle cx="305.727" cy="257.757" r="6.045"/>
            </g>
            <g transform="matrix(0.526742,0,0,0.637961,55251,1626.11)">
                <circle cx="214.102" cy="257.757" r="6.045"/>
            </g>
            <g transform="matrix(0.526742,0,0,0.637961,55251,1626.11)">
                <circle cx="123.237" cy="257.757" r="6.044"/>
            </g>
            <g transform="matrix(0.526742,0,0,0.637961,55251,1626.11)">
                <circle cx="30.816" cy="257.757" r="6.045"/>
            </g>
            <g transform="matrix(0.526742,0,0,0.637961,55251,1626.11)">
                <circle cx="76.892" cy="178.241" r="6.045"/>
            </g>
            <g transform="matrix(0.526742,0,0,0.637961,55251,1626.11)">
                <circle cx="168.317" cy="178.241" r="6.045"/>
            </g>
            <g transform="matrix(0.526742,0,0,0.637961,55251,1626.11)">
                <circle cx="123.237" cy="98.498" r="6.044"/>
            </g>
            <g transform="matrix(0.526742,0,0,0.637961,55251,1626.11)">
                <rect x="0" y="0" width="337.667" height="282.667" style="fill:none;"/>
            </g>
        </g>
        <g transform="matrix(-0.2073,2.53869e-17,-2.09611e-17,-0.17116,12015.3,536.033)">
            <g transform="matrix(0.526742,0,0,0.637961,55251,1626.11)">
                <path d="M30.816,257.756L76.417,178.774L122.016,257.756L30.816,257.756Z" style="fill:none;fill-rule:nonzero;stroke:black;stroke-width:0.6px;"/>
            </g>
            <g transform="matrix(0.526742,0,0,0.637961,55251,1626.11)">
                <path d="M122.885,257.756L168.484,178.774L214.083,257.756L122.885,257.756Z" style="fill:none;fill-rule:nonzero;stroke:black;stroke-width:0.6px;"/>
            </g>
            <g transform="matrix(0.526742,0,0,0.637961,55251,1626.11)">
                <path d="M214.528,257.756L260.127,178.774L305.727,257.756L214.528,257.756Z" style="fill:none;fill-rule:nonzero;stroke:black;stroke-width:0.6px;"/>
            </g>
            <g transform="matrix(0.526742,0,0,0.637961,55251,1626.11)">
                <path d="M76.892,177.973L122.491,98.993L168.092,177.973L76.892,177.973Z" style="fill:none;fill-rule:nonzero;stroke:black;stroke-width:0.6px;"/>
            </g>
            <g transform="matrix(0.526742,0,0,0.637961,55251,1626.11)">
                <path d="M168.658,177.973L214.258,98.993L259.858,177.973L168.658,177.973Z" style="fill:none;fill-rule:nonzero;stroke:black;stroke-width:0.6px;"/>
            </g>
            <g transform="matrix(0.526742,0,0,0.637961,55251,1626.11)">
                <path d="M122.921,98.396L168.521,19.416L214.118,98.396L122.921,98.396Z" style="fill:none;fill-rule:nonzero;stroke:black;stroke-width:0.6px;"/>
            </g>
            <g transform="matrix(0.526742,0,0,0.637961,55251,1626.11)">
                <circle cx="168.317" cy="18.147" r="6.044"/>
            </g>
            <g transform="matrix(0.526742,0,0,0.637961,55251,1626.11)">
                <circle cx="214.102" cy="98.498" r="6.045"/>
            </g>
            <g transform="matrix(0.526742,0,0,0.637961,55251,1626.11)">
                <circle cx="259.858" cy="178.241" r="6.045"/>
            </g>
            <g transform="matrix(0.526742,0,0,0.637961,55251,1626.11)">
                <circle cx="305.727" cy="257.757" r="6.045"/>
            </g>
            <g transform="matrix(0.526742,0,0,0.637961,55251,1626.11)">
                <circle cx="214.102" cy="257.757" r="6.045"/>
            </g>
            <g transform="matrix(0.526742,0,0,0.637961,55251,1626.11)">
                <circle cx="123.237" cy="257.757" r="6.044"/>
            </g>
            <g transform="matrix(0.526742,0,0,0.637961,55251,1626.11)">
                <circle cx="30.816" cy="257.757" r="6.045"/>
            </g>
            <g transform="matrix(0.526742,0,0,0.637961,55251,1626.11)">
                <circle cx="76.892" cy="178.241" r="6.045"/>
            </g>
            <g transform="matrix(0.526742,0,0,0.637961,55251,1626.11)">
                <circle cx="168.317" cy="178.241" r="6.045"/>
            </g>
            <g transform="matrix(0.526742,0,0,0.637961,55251,1626.11)">
                <circle cx="123.237" cy="98.498" r="6.044"/>
            </g>
            <g transform="matrix(0.526742,0,0,0.637961,55251,1626.11)">
                <rect x="0" y="0" width="337.667" height="282.667" style="fill:none;"/>
            </g>
        </g>
    </g>
</svg>
