<?xml version='1.0' encoding='ascii'?>
<svg xmlns="http://www.w3.org/2000/svg" xmlns:inkscape="http://www.inkscape.org/namespaces/inkscape" height="270" version="1.1" width="480">
    <g id="View Layer_LineSet" inkscape:groupmode="lineset" inkscape:label="View Layer_LineSet">
        <g id="frame_0001" inkscape:groupmode="frame" inkscape:label="frame_0001">
            <g id="strokes" inkscape:groupmode="layer" inkscape:label="strokes">
                <path d=" M 326.986, 77.030 317.538, 73.753 308.090, 70.477 298.642, 67.200 289.194, 63.924 279.746, 60.647 270.298, 57.371 260.850, 54.094 251.402, 50.817 241.870, 47.512 232.318, 50.470 222.765, 53.428 213.213, 56.387 203.660, 59.345 194.108, 62.303 184.556, 65.262 175.003, 68.220 165.451, 71.178 155.898, 74.136 152.645, 75.144 153.267, 85.125 153.890, 95.105 154.513, 105.086 155.135, 115.066 155.758, 125.047 156.380, 135.028 157.003, 145.008 157.625, 154.989 158.248, 164.969 158.870, 174.950 159.272, 181.387 167.815, 186.585 176.358, 191.783 184.901, 196.981 193.443, 202.179 201.986, 207.377 210.529, 212.575 219.072, 217.773 227.615, 222.971 236.829, 228.577 245.643, 223.853 254.456, 219.128 263.270, 214.404 272.083, 209.680 280.897, 204.955 289.711, 200.231 298.524, 195.506 307.338, 190.782 316.151, 186.057 320.345, 183.810 320.965, 173.829 321.586, 163.848 322.207, 153.867 322.828, 143.887 323.449, 133.906 324.069, 123.925 324.690, 113.945 325.311, 103.964 325.932, 93.983 326.552, 84.002 326.986, 77.030 " fill="none" stroke="rgb(0, 0, 0)" stroke-linecap="butt" stroke-linejoin="round" stroke-opacity="1.0" stroke-width="3.0" />
                <path d=" M 152.645, 75.144 161.791, 79.188 170.937, 83.231 180.083, 87.275 189.229, 91.319 198.375, 95.362 207.521, 99.406 216.667, 103.449 225.813, 107.493 234.959, 111.537 236.533, 112.233 " fill="none" stroke="rgb(0, 0, 0)" stroke-linecap="butt" stroke-linejoin="round" stroke-opacity="1.0" stroke-width="3.0" />
                <path d=" M 236.829, 228.577 236.804, 218.577 236.778, 208.577 236.753, 198.577 236.727, 188.577 236.702, 178.578 236.676, 168.578 236.651, 158.578 236.626, 148.578 236.600, 138.578 236.575, 128.578 236.549, 118.578 236.533, 112.233 245.852, 108.606 255.171, 104.979 264.490, 101.352 273.810, 97.725 283.129, 94.098 292.448, 90.472 301.767, 86.845 311.086, 83.218 320.405, 79.591 326.986, 77.030 " fill="none" stroke="rgb(0, 0, 0)" stroke-linecap="butt" stroke-linejoin="round" stroke-opacity="1.0" stroke-width="3.0" />
            </g>
            <animate attributeName="display" begin="-5.000s" dur="5.000s" id="anim_View Layer_LineSet_000001" keyTimes="0.0;0.05;0.1;0.15;0.2;0.25;0.3;0.35;0.4;0.45;0.5;0.55;0.6;0.65;0.7;0.75;0.8;0.85;0.9;0.95;1" repeatCount="indefinite" values="none;none;none;none;none;none;none;none;none;none;none;none;none;none;none;none;none;none;none;inline;none" />
        </g>
        <g id="frame_0002" inkscape:groupmode="frame" inkscape:label="frame_0002">
            <g id="strokes" inkscape:groupmode="layer" inkscape:label="strokes">
                <path d=" M 320.018, 66.930 310.170, 65.195 300.321, 63.460 290.473, 61.725 280.625, 59.990 270.776, 58.255 260.928, 56.520 251.079, 54.785 241.231, 53.050 231.383, 51.315 221.534, 49.580 216.296, 48.658 207.685, 53.741 199.073, 58.825 190.462, 63.908 181.850, 68.992 173.239, 74.075 164.628, 79.159 156.016, 84.242 153.215, 85.896 153.838, 95.877 154.461, 105.857 155.084, 115.838 155.708, 125.818 156.331, 135.799 156.954, 145.780 157.577, 155.760 158.201, 165.741 158.824, 175.721 159.447, 185.702 160.038, 195.168 169.634, 197.982 179.230, 200.797 188.826, 203.611 198.422, 206.425 208.017, 209.240 217.613, 212.054 227.209, 214.868 236.805, 217.683 246.401, 220.497 255.996, 223.311 266.154, 226.291 272.694, 218.725 279.233, 211.160 285.773, 203.594 292.312, 196.029 298.852, 188.464 305.391, 180.898 311.931, 173.333 314.117, 170.803 314.685, 160.819 315.252, 150.835 315.819, 140.851 316.386, 130.867 316.953, 120.883 317.520, 110.900 318.087, 100.916 318.654, 90.932 319.222, 80.948 319.789, 70.964 320.018, 66.930 " fill="none" stroke="rgb(0, 0, 0)" stroke-linecap="butt" stroke-linejoin="round" stroke-opacity="1.0" stroke-width="3.0" />
                <path d=" M 153.215, 85.896 162.996, 87.975 172.777, 90.054 182.559, 92.134 192.340, 94.213 202.122, 96.292 211.903, 98.371 221.685, 100.450 231.466, 102.529 241.248, 104.608 251.029, 106.687 260.811, 108.767 268.580, 110.418 " fill="none" stroke="rgb(0, 0, 0)" stroke-linecap="butt" stroke-linejoin="round" stroke-opacity="1.0" stroke-width="3.0" />
                <path d=" M 266.154, 226.291 266.363, 216.293 266.573, 206.295 266.782, 196.297 266.991, 186.299 267.201, 176.302 267.410, 166.304 267.619, 156.306 267.829, 146.308 268.038, 136.310 268.247, 126.312 268.456, 116.315 268.580, 110.418 276.216, 103.962 283.853, 97.505 291.490, 91.049 299.126, 84.593 306.763, 78.137 314.399, 71.680 320.018, 66.930 " fill="none" stroke="rgb(0, 0, 0)" stroke-linecap="butt" stroke-linejoin="round" stroke-opacity="1.0" stroke-width="3.0" />
            </g>
            <animate attributeName="display" begin="-4.750s" dur="5.000s" id="anim_View Layer_LineSet_000002" keyTimes="0.0;0.05;0.1;0.15;0.2;0.25;0.3;0.35;0.4;0.45;0.5;0.55;0.6;0.65;0.7;0.75;0.8;0.85;0.9;0.95;1" repeatCount="indefinite" values="none;none;none;none;none;none;none;none;none;none;none;none;none;none;none;none;none;none;none;inline;none" />
        </g>
        <g id="frame_0003" inkscape:groupmode="frame" inkscape:label="frame_0003">
            <g id="strokes" inkscape:groupmode="layer" inkscape:label="strokes">
                <path d=" M 305.364, 58.444 295.377, 57.922 285.391, 57.400 275.405, 56.878 265.418, 56.355 255.432, 55.833 245.446, 55.311 235.459, 54.789 225.473, 54.267 215.487, 53.745 205.500, 53.223 195.514, 52.700 192.494, 52.543 187.025, 60.914 181.555, 69.286 176.085, 77.657 170.616, 86.029 165.146, 94.400 163.876, 96.345 164.427, 106.330 164.978, 116.315 165.529, 126.300 166.080, 136.284 166.631, 146.269 167.182, 156.254 167.733, 166.239 168.284, 176.224 168.835, 186.208 169.386, 196.193 169.938, 206.178 170.065, 208.481 180.028, 209.333 189.992, 210.184 199.956, 211.035 209.920, 211.886 219.883, 212.737 229.847, 213.588 239.811, 214.439 249.774, 215.291 259.738, 216.142 269.702, 216.993 279.666, 217.844 289.629, 218.695 291.651, 218.868 293.164, 208.983 294.676, 199.098 296.189, 189.213 297.702, 179.328 299.215, 169.443 300.688, 159.818 301.149, 149.828 301.610, 139.839 302.070, 129.850 302.531, 119.860 302.992, 109.871 303.453, 99.882 303.913, 89.892 304.374, 79.903 304.835, 69.913 305.296, 59.924 305.364, 58.444 " fill="none" stroke="rgb(0, 0, 0)" stroke-linecap="butt" stroke-linejoin="round" stroke-opacity="1.0" stroke-width="3.0" />
                <path d=" M 163.876, 96.345 173.857, 96.962 183.837, 97.580 193.818, 98.197 203.799, 98.815 213.780, 99.432 223.761, 100.049 233.742, 100.667 243.723, 101.284 253.704, 101.901 263.685, 102.519 273.666, 103.136 283.647, 103.753 293.628, 104.371 296.350, 104.539 " fill="none" stroke="rgb(0, 0, 0)" stroke-linecap="butt" stroke-linejoin="round" stroke-opacity="1.0" stroke-width="3.0" />
                <path d=" M 291.651, 218.868 292.061, 208.876 292.472, 198.885 292.883, 188.893 293.293, 178.902 293.704, 168.910 294.115, 158.918 294.525, 148.927 294.936, 138.935 295.347, 128.944 295.757, 118.952 296.168, 108.961 296.350, 104.539 298.269, 94.725 300.188, 84.911 302.107, 75.097 304.026, 65.283 305.364, 58.444 " fill="none" stroke="rgb(0, 0, 0)" stroke-linecap="butt" stroke-linejoin="round" stroke-opacity="1.0" stroke-width="3.0" />
            </g>
            <animate attributeName="display" begin="-4.500s" dur="5.000s" id="anim_View Layer_LineSet_000003" keyTimes="0.0;0.05;0.1;0.15;0.2;0.25;0.3;0.35;0.4;0.45;0.5;0.55;0.6;0.65;0.7;0.75;0.8;0.85;0.9;0.95;1" repeatCount="indefinite" values="none;none;none;none;none;none;none;none;none;none;none;none;none;none;none;none;none;none;none;inline;none" />
        </g>
        <g id="frame_0004" inkscape:groupmode="frame" inkscape:label="frame_0004">
            <g id="strokes" inkscape:groupmode="layer" inkscape:label="strokes">
                <path d=" M 285.020, 52.177 275.038, 52.781 265.057, 53.384 255.075, 53.988 245.093, 54.591 235.111, 55.195 225.130, 55.798 215.148, 56.402 205.166, 57.005 195.184, 57.609 185.203, 58.212 175.221, 58.815 172.466, 58.982 172.942, 68.971 173.418, 78.959 173.894, 88.948 174.370, 98.937 174.847, 108.925 175.323, 118.914 175.799, 128.903 176.275, 138.891 176.751, 148.880 177.228, 158.869 177.306, 160.516 179.246, 170.326 181.186, 180.136 183.126, 189.946 185.066, 199.756 187.005, 209.566 188.979, 219.545 198.930, 218.561 208.882, 217.578 218.833, 216.594 228.785, 215.611 238.736, 214.627 248.688, 213.643 258.639, 212.660 268.591, 211.676 278.542, 210.693 288.494, 209.709 298.445, 208.726 308.397, 207.742 310.001, 207.584 310.553, 197.599 311.104, 187.614 311.655, 177.629 312.206, 167.644 312.757, 157.660 313.309, 147.675 313.860, 137.690 314.411, 127.705 314.962, 117.720 315.514, 107.736 316.065, 97.751 316.181, 95.639 310.354, 87.512 304.528, 79.385 298.701, 71.258 292.874, 63.131 287.047, 55.004 285.020, 52.177 " fill="none" stroke="rgb(0, 0, 0)" stroke-linecap="butt" stroke-linejoin="round" stroke-opacity="1.0" stroke-width="3.0" />
                <path d=" M 172.466, 58.982 174.958, 68.666 177.451, 78.351 179.943, 88.035 182.436, 97.720 184.329, 105.074 " fill="none" stroke="rgb(0, 0, 0)" stroke-linecap="butt" stroke-linejoin="round" stroke-opacity="1.0" stroke-width="3.0" />
                <path d=" M 188.979, 219.545 188.573, 209.553 188.167, 199.561 187.761, 189.569 187.355, 179.578 186.949, 169.586 186.544, 159.594 186.138, 149.602 185.732, 139.611 185.326, 129.619 184.920, 119.627 184.514, 109.635 184.329, 105.074 194.303, 104.361 204.278, 103.647 214.252, 102.933 224.227, 102.219 234.201, 101.505 244.176, 100.792 254.150, 100.078 264.125, 99.364 274.099, 98.650 284.074, 97.936 294.048, 97.223 304.023, 96.509 313.997, 95.795 316.181, 95.639 " fill="none" stroke="rgb(0, 0, 0)" stroke-linecap="butt" stroke-linejoin="round" stroke-opacity="1.0" stroke-width="3.0" />
            </g>
            <animate attributeName="display" begin="-4.250s" dur="5.000s" id="anim_View Layer_LineSet_000004" keyTimes="0.0;0.05;0.1;0.15;0.2;0.25;0.3;0.35;0.4;0.45;0.5;0.55;0.6;0.65;0.7;0.75;0.8;0.85;0.9;0.95;1" repeatCount="indefinite" values="none;none;none;none;none;none;none;none;none;none;none;none;none;none;none;none;none;none;none;inline;none" />
        </g>
        <g id="frame_0005" inkscape:groupmode="frame" inkscape:label="frame_0005">
            <g id="strokes" inkscape:groupmode="layer" inkscape:label="strokes">
                <path d=" M 261.039, 48.484 251.208, 50.313 241.377, 52.142 231.546, 53.972 221.714, 55.801 211.883, 57.630 202.052, 59.459 192.220, 61.289 182.389, 63.118 172.558, 64.947 162.727, 66.776 158.265, 67.607 158.845, 77.590 159.424, 87.573 160.004, 97.556 160.584, 107.539 161.163, 117.523 161.743, 127.506 162.322, 137.489 162.902, 147.472 163.481, 157.455 164.061, 167.438 164.307, 171.677 171.077, 179.037 177.846, 186.397 184.616, 193.757 191.386, 201.117 198.156, 208.477 204.926, 215.837 211.695, 223.197 214.857, 226.635 224.408, 223.670 233.958, 220.705 243.508, 217.739 253.059, 214.774 262.609, 211.809 272.159, 208.844 281.710, 205.879 291.260, 202.914 300.810, 199.949 310.360, 196.984 319.394, 194.179 320.012, 184.198 320.630, 174.218 321.249, 164.237 321.867, 154.256 322.486, 144.275 323.104, 134.294 323.722, 124.313 324.341, 114.332 324.959, 104.352 325.578, 94.371 326.151, 85.123 317.436, 80.219 308.721, 75.315 300.006, 70.411 291.291, 65.507 282.576, 60.603 273.861, 55.699 265.146, 50.795 261.039, 48.484 " fill="none" stroke="rgb(0, 0, 0)" stroke-linecap="butt" stroke-linejoin="round" stroke-opacity="1.0" stroke-width="3.0" />
                <path d=" M 158.265, 67.607 166.097, 73.825 173.928, 80.044 181.759, 86.262 189.591, 92.481 197.422, 98.699 205.253, 104.918 212.523, 110.691 " fill="none" stroke="rgb(0, 0, 0)" stroke-linecap="butt" stroke-linejoin="round" stroke-opacity="1.0" stroke-width="3.0" />
                <path d=" M 214.857, 226.635 214.656, 216.637 214.455, 206.639 214.254, 196.641 214.052, 186.643 213.851, 176.645 213.650, 166.647 213.449, 156.649 213.247, 146.651 213.046, 136.653 212.845, 126.655 212.643, 116.657 212.523, 110.691 222.279, 108.496 232.036, 106.300 241.792, 104.105 251.548, 101.910 261.304, 99.714 271.060, 97.519 280.816, 95.324 290.572, 93.129 300.328, 90.933 310.084, 88.738 319.840, 86.543 326.151, 85.123 " fill="none" stroke="rgb(0, 0, 0)" stroke-linecap="butt" stroke-linejoin="round" stroke-opacity="1.0" stroke-width="3.0" />
            </g>
            <animate attributeName="display" begin="-4.000s" dur="5.000s" id="anim_View Layer_LineSet_000005" keyTimes="0.0;0.05;0.1;0.15;0.2;0.25;0.3;0.35;0.4;0.45;0.5;0.55;0.6;0.65;0.7;0.75;0.8;0.85;0.9;0.95;1" repeatCount="indefinite" values="none;none;none;none;none;none;none;none;none;none;none;none;none;none;none;none;none;none;none;inline;none" />
        </g>
        <g id="frame_0006" inkscape:groupmode="frame" inkscape:label="frame_0006">
            <g id="strokes" inkscape:groupmode="layer" inkscape:label="strokes">
                <path d=" M 235.418, 47.537 226.015, 50.942 216.613, 54.347 207.210, 57.752 197.808, 61.157 188.406, 64.562 179.003, 67.967 169.601, 71.373 160.198, 74.778 151.880, 77.790 152.509, 87.771 153.138, 97.751 153.767, 107.731 154.396, 117.711 155.025, 127.691 155.655, 137.671 156.284, 147.652 156.913, 157.632 157.542, 167.612 158.171, 177.592 158.625, 184.786 167.531, 189.334 176.437, 193.881 185.344, 198.428 194.250, 202.975 203.156, 207.523 212.063, 212.070 220.969, 216.617 229.875, 221.165 238.781, 225.712 244.295, 228.527 252.721, 223.142 261.147, 217.756 269.573, 212.371 277.999, 206.986 286.425, 201.600 294.851, 196.215 303.277, 190.829 311.703, 185.444 319.552, 180.428 320.165, 170.446 320.778, 160.465 321.391, 150.484 322.004, 140.503 322.617, 130.522 323.230, 120.540 323.844, 110.559 324.457, 100.578 325.070, 90.597 325.683, 80.616 326.065, 74.398 316.477, 71.557 306.889, 68.716 297.301, 65.874 287.713, 63.033 278.125, 60.192 268.537, 57.351 258.949, 54.510 249.361, 51.669 239.774, 48.828 235.418, 47.537 " fill="none" stroke="rgb(0, 0, 0)" stroke-linecap="butt" stroke-linejoin="round" stroke-opacity="1.0" stroke-width="3.0" />
                <path d=" M 151.880, 77.790 161.256, 81.266 170.633, 84.741 180.009, 88.217 189.386, 91.692 198.763, 95.168 208.139, 98.643 217.516, 102.119 226.893, 105.594 236.269, 109.070 244.696, 112.193 " fill="none" stroke="rgb(0, 0, 0)" stroke-linecap="butt" stroke-linejoin="round" stroke-opacity="1.0" stroke-width="3.0" />
                <path d=" M 244.295, 228.527 244.329, 218.527 244.364, 208.527 244.398, 198.527 244.433, 188.527 244.467, 178.527 244.502, 168.527 244.536, 158.527 244.570, 148.528 244.605, 138.528 244.639, 128.528 244.674, 118.528 244.696, 112.193 253.765, 107.980 262.834, 103.768 271.904, 99.555 280.973, 95.342 290.043, 91.130 299.112, 86.917 308.181, 82.705 317.251, 78.492 326.065, 74.398 " fill="none" stroke="rgb(0, 0, 0)" stroke-linecap="butt" stroke-linejoin="round" stroke-opacity="1.0" stroke-width="3.0" />
            </g>
            <animate attributeName="display" begin="-3.750s" dur="5.000s" id="anim_View Layer_LineSet_000006" keyTimes="0.0;0.05;0.1;0.15;0.2;0.25;0.3;0.35;0.4;0.45;0.5;0.55;0.6;0.65;0.7;0.75;0.8;0.85;0.9;0.95;1" repeatCount="indefinite" values="none;none;none;none;none;none;none;none;none;none;none;none;none;none;none;none;none;none;none;inline;none" />
        </g>
        <g id="frame_0007" inkscape:groupmode="frame" inkscape:label="frame_0007">
            <g id="strokes" inkscape:groupmode="layer" inkscape:label="strokes">
                <path d=" M 210.103, 49.377 201.951, 55.169 193.800, 60.961 185.648, 66.754 177.496, 72.546 169.345, 78.339 161.193, 84.131 154.919, 88.590 155.531, 98.571 156.143, 108.552 156.755, 118.533 157.368, 128.515 157.980, 138.496 158.592, 148.477 159.204, 158.458 159.817, 168.440 160.429, 178.421 161.041, 188.402 161.667, 198.607 171.400, 200.903 181.133, 203.199 190.866, 205.495 200.599, 207.791 210.332, 210.087 220.064, 212.383 229.797, 214.679 239.530, 216.974 249.263, 219.270 258.996, 221.566 268.729, 223.862 273.039, 224.879 278.616, 216.578 284.192, 208.278 289.769, 199.977 295.346, 191.677 300.923, 183.376 306.500, 175.075 311.368, 167.829 311.913, 157.844 312.458, 147.859 313.003, 137.874 313.548, 127.888 314.093, 117.903 314.638, 107.918 315.182, 97.933 315.727, 87.948 316.272, 77.963 316.817, 67.977 317.000, 64.629 307.100, 63.216 297.200, 61.804 287.301, 60.391 277.401, 58.979 267.501, 57.566 257.601, 56.154 247.702, 54.741 237.802, 53.329 227.902, 51.916 218.002, 50.504 210.103, 49.377 " fill="none" stroke="rgb(0, 0, 0)" stroke-linecap="butt" stroke-linejoin="round" stroke-opacity="1.0" stroke-width="3.0" />
                <path d=" M 154.919, 88.590 164.776, 90.274 174.633, 91.959 184.490, 93.643 194.347, 95.328 204.204, 97.013 214.061, 98.697 223.918, 100.382 233.775, 102.066 243.632, 103.751 253.489, 105.436 263.347, 107.120 273.204, 108.805 276.092, 109.298 " fill="none" stroke="rgb(0, 0, 0)" stroke-linecap="butt" stroke-linejoin="round" stroke-opacity="1.0" stroke-width="3.0" />
                <path d=" M 273.039, 224.879 273.303, 214.882 273.567, 204.886 273.831, 194.889 274.095, 184.893 274.359, 174.896 274.623, 164.900 274.887, 154.903 275.151, 144.907 275.415, 134.910 275.680, 124.914 275.944, 114.917 276.092, 109.298 282.846, 101.924 289.599, 94.549 296.353, 87.174 303.107, 79.799 309.861, 72.424 317.000, 64.629 " fill="none" stroke="rgb(0, 0, 0)" stroke-linecap="butt" stroke-linejoin="round" stroke-opacity="1.0" stroke-width="3.0" />
            </g>
            <animate attributeName="display" begin="-3.500s" dur="5.000s" id="anim_View Layer_LineSet_000007" keyTimes="0.0;0.05;0.1;0.15;0.2;0.25;0.3;0.35;0.4;0.45;0.5;0.55;0.6;0.65;0.7;0.75;0.8;0.85;0.9;0.95;1" repeatCount="indefinite" values="none;none;none;none;none;none;none;none;none;none;none;none;none;none;none;none;none;none;none;inline;none" />
        </g>
        <g id="frame_0008" inkscape:groupmode="frame" inkscape:label="frame_0008">
            <g id="strokes" inkscape:groupmode="layer" inkscape:label="strokes">
                <path d=" M 187.054, 53.924 183.162, 63.135 179.271, 72.347 175.380, 81.559 171.488, 90.771 168.119, 98.746 168.641, 108.732 169.162, 118.719 169.683, 128.705 170.205, 138.692 170.726, 148.678 171.247, 158.664 171.769, 168.651 172.290, 178.637 172.811, 188.624 173.333, 198.610 173.854, 208.597 174.007, 211.530 184.000, 211.921 193.992, 212.312 203.984, 212.703 213.977, 213.094 223.969, 213.486 233.961, 213.877 243.954, 214.268 253.946, 214.659 263.938, 215.050 273.931, 215.442 283.923, 215.833 293.915, 216.224 297.007, 216.345 297.459, 206.355 297.912, 196.366 298.364, 186.376 298.816, 176.386 299.268, 166.396 299.721, 156.407 300.173, 146.417 300.625, 136.427 301.077, 126.437 301.529, 116.447 301.982, 106.458 302.159, 102.546 301.848, 92.550 301.537, 82.555 301.226, 72.560 300.915, 62.565 300.731, 56.652 290.734, 56.412 280.736, 56.172 270.739, 55.932 260.742, 55.692 250.745, 55.452 240.748, 55.212 230.751, 54.972 220.754, 54.732 210.757, 54.493 200.759, 54.253 190.762, 54.013 187.054, 53.924 " fill="none" stroke="rgb(0, 0, 0)" stroke-linecap="butt" stroke-linejoin="round" stroke-opacity="1.0" stroke-width="3.0" />
                <path d=" M 168.119, 98.746 178.115, 99.029 188.111, 99.313 198.107, 99.596 208.103, 99.879 218.099, 100.163 228.095, 100.446 238.091, 100.729 248.087, 101.013 258.083, 101.296 268.079, 101.580 278.075, 101.863 288.071, 102.146 298.067, 102.430 302.159, 102.546 " fill="none" stroke="rgb(0, 0, 0)" stroke-linecap="butt" stroke-linejoin="round" stroke-opacity="1.0" stroke-width="3.0" />
            </g>
            <animate attributeName="display" begin="-3.250s" dur="5.000s" id="anim_View Layer_LineSet_000008" keyTimes="0.0;0.05;0.1;0.15;0.2;0.25;0.3;0.35;0.4;0.45;0.5;0.55;0.6;0.65;0.7;0.75;0.8;0.85;0.9;0.95;1" repeatCount="indefinite" values="none;none;none;none;none;none;none;none;none;none;none;none;none;none;none;none;none;none;none;inline;none" />
        </g>
        <g id="frame_0009" inkscape:groupmode="frame" inkscape:label="frame_0009">
            <g id="strokes" inkscape:groupmode="layer" inkscape:label="strokes">
                <path d=" M 168.289, 60.953 172.690, 69.932 177.092, 78.911 181.494, 87.890 185.895, 96.870 190.297, 105.849 190.773, 106.819 " fill="none" stroke="rgb(0, 0, 0)" stroke-linecap="butt" stroke-linejoin="round" stroke-opacity="1.0" stroke-width="3.0" />
                <path d=" M 194.906, 221.750 194.547, 211.756 194.187, 201.763 193.828, 191.769 193.468, 181.775 193.109, 171.782 192.750, 161.788 192.390, 151.795 192.031, 141.801 191.671, 131.808 191.312, 121.814 190.953, 111.821 190.773, 106.819 200.716, 105.761 210.660, 104.702 220.604, 103.644 230.548, 102.586 240.492, 101.527 250.436, 100.469 260.379, 99.410 270.323, 98.352 280.267, 97.294 290.211, 96.235 300.155, 95.177 310.099, 94.118 319.633, 93.104 " fill="none" stroke="rgb(0, 0, 0)" stroke-linecap="butt" stroke-linejoin="round" stroke-opacity="1.0" stroke-width="3.0" />
                <path d=" M 319.633, 93.104 312.714, 85.884 305.795, 78.664 298.876, 71.444 291.957, 64.224 285.038, 57.004 279.287, 51.003 269.327, 51.896 259.367, 52.789 249.407, 53.682 239.447, 54.574 229.487, 55.467 219.526, 56.360 209.566, 57.253 199.606, 58.146 189.646, 59.038 179.686, 59.931 169.726, 60.824 168.289, 60.953 168.795, 70.940 169.301, 80.927 169.808, 90.914 170.314, 100.901 170.820, 110.889 171.326, 120.876 171.833, 130.863 172.339, 140.850 172.845, 150.837 173.352, 160.825 173.465, 163.071 176.897, 172.463 180.329, 181.856 183.761, 191.249 187.193, 200.641 190.625, 210.034 194.057, 219.427 194.906, 221.750 204.800, 220.295 214.693, 218.841 224.587, 217.387 234.481, 215.933 244.375, 214.479 254.268, 213.025 264.162, 211.571 274.056, 210.116 283.949, 208.662 293.843, 207.208 303.737, 205.754 313.224, 204.360 313.799, 194.376 314.375, 184.393 314.950, 174.409 315.525, 164.426 316.100, 154.442 316.675, 144.459 317.250, 134.475 317.825, 124.492 318.400, 114.509 318.975, 104.525 319.550, 94.542 319.633, 93.104 " fill="none" stroke="rgb(0, 0, 0)" stroke-linecap="butt" stroke-linejoin="round" stroke-opacity="1.0" stroke-width="3.0" />
            </g>
            <animate attributeName="display" begin="-3.000s" dur="5.000s" id="anim_View Layer_LineSet_000009" keyTimes="0.0;0.05;0.1;0.15;0.2;0.25;0.3;0.35;0.4;0.45;0.5;0.55;0.6;0.65;0.7;0.75;0.8;0.85;0.9;0.95;1" repeatCount="indefinite" values="none;none;none;none;none;none;none;none;none;none;none;none;none;none;none;none;none;none;none;inline;none" />
        </g>
        <g id="frame_0010" inkscape:groupmode="frame" inkscape:label="frame_0010">
            <g id="strokes" inkscape:groupmode="layer" inkscape:label="strokes">
                <path d=" M 155.864, 70.037 164.277, 75.442 172.691, 80.847 181.104, 86.252 189.518, 91.657 197.931, 97.062 206.345, 102.467 214.758, 107.872 220.371, 111.477 " fill="none" stroke="rgb(0, 0, 0)" stroke-linecap="butt" stroke-linejoin="round" stroke-opacity="1.0" stroke-width="3.0" />
                <path d=" M 222.042, 227.626 221.898, 217.627 221.754, 207.628 221.610, 197.629 221.466, 187.630 221.323, 177.631 221.179, 167.632 221.035, 157.633 220.891, 147.634 220.747, 137.635 220.603, 127.636 220.459, 117.637 220.371, 111.477 230.019, 108.848 239.667, 106.219 249.315, 103.590 258.964, 100.962 268.612, 98.333 278.260, 95.704 287.908, 93.075 297.557, 90.446 307.205, 87.817 316.853, 85.188 327.047, 82.410 " fill="none" stroke="rgb(0, 0, 0)" stroke-linecap="butt" stroke-linejoin="round" stroke-opacity="1.0" stroke-width="3.0" />
                <path d=" M 327.047, 82.410 318.017, 78.113 308.988, 73.816 299.958, 69.519 290.928, 65.222 281.899, 60.924 272.869, 56.627 263.839, 52.330 254.711, 47.986 244.951, 50.163 235.191, 52.341 225.431, 54.518 215.671, 56.695 205.911, 58.873 196.151, 61.050 186.391, 63.227 176.631, 65.405 166.870, 67.582 157.110, 69.759 155.864, 70.037 156.461, 80.020 157.059, 90.002 157.656, 99.984 158.254, 109.966 158.851, 119.948 159.449, 129.930 160.047, 139.912 160.644, 149.894 161.242, 159.877 161.839, 169.859 162.136, 174.813 169.637, 181.426 177.138, 188.039 184.639, 194.652 192.140, 201.265 199.642, 207.878 207.143, 214.491 214.644, 221.104 222.042, 227.626 231.403, 224.108 240.764, 220.590 250.125, 217.073 259.485, 213.555 268.846, 210.037 278.207, 206.520 287.568, 203.002 296.929, 199.484 306.290, 195.967 315.651, 192.449 320.280, 190.709 320.904, 180.729 321.527, 170.748 322.151, 160.768 322.775, 150.787 323.398, 140.806 324.022, 130.826 324.645, 120.845 325.269, 110.865 325.893, 100.884 326.516, 90.904 327.047, 82.410 " fill="none" stroke="rgb(0, 0, 0)" stroke-linecap="butt" stroke-linejoin="round" stroke-opacity="1.0" stroke-width="3.0" />
            </g>
            <animate attributeName="display" begin="-2.750s" dur="5.000s" id="anim_View Layer_LineSet_000010" keyTimes="0.0;0.05;0.1;0.15;0.2;0.25;0.3;0.35;0.4;0.45;0.5;0.55;0.6;0.65;0.7;0.75;0.8;0.85;0.9;0.95;1" repeatCount="indefinite" values="none;none;none;none;none;none;none;none;none;none;none;none;none;none;none;none;none;none;none;inline;none" />
        </g>
        <g id="frame_0011" inkscape:groupmode="frame" inkscape:label="frame_0011">
            <g id="strokes" inkscape:groupmode="layer" inkscape:label="strokes">
                <path d=" M 151.708, 80.477 161.258, 83.442 170.808, 86.408 180.358, 89.374 189.908, 92.340 199.458, 95.306 209.008, 98.272 218.558, 101.237 228.108, 104.203 237.658, 107.169 247.208, 110.135 252.809, 111.874 " fill="none" stroke="rgb(0, 0, 0)" stroke-linecap="butt" stroke-linejoin="round" stroke-opacity="1.0" stroke-width="3.0" />
                <path d=" M 251.717, 228.125 251.811, 218.126 251.905, 208.126 251.998, 198.127 252.092, 188.127 252.186, 178.128 252.280, 168.128 252.374, 158.128 252.468, 148.129 252.562, 138.129 252.656, 128.130 252.750, 118.130 252.809, 111.874 261.541, 107.001 270.274, 102.129 279.006, 97.256 287.739, 92.384 296.471, 87.511 305.204, 82.638 313.937, 77.766 322.669, 72.893 324.579, 71.828 " fill="none" stroke="rgb(0, 0, 0)" stroke-linecap="butt" stroke-linejoin="round" stroke-opacity="1.0" stroke-width="3.0" />
                <path d=" M 324.579, 71.828 314.882, 69.384 305.185, 66.940 295.488, 64.496 285.791, 62.053 276.095, 59.609 266.398, 57.165 256.701, 54.721 247.004, 52.278 237.307, 49.834 228.984, 47.736 219.777, 51.638 210.569, 55.539 201.361, 59.440 192.153, 63.341 182.946, 67.242 173.738, 71.143 164.530, 75.044 155.323, 78.945 151.708, 80.477 152.339, 90.457 152.971, 100.437 153.602, 110.417 154.234, 120.397 154.866, 130.377 155.497, 140.357 156.129, 150.337 156.760, 160.317 157.392, 170.297 158.024, 180.277 158.527, 188.232 167.720, 192.167 176.913, 196.103 186.106, 200.038 195.299, 203.974 204.492, 207.909 213.685, 211.845 222.878, 215.780 232.072, 219.715 241.265, 223.651 250.458, 227.586 251.717, 228.125 259.652, 222.040 267.588, 215.955 275.523, 209.870 283.459, 203.785 291.395, 197.701 299.330, 191.616 307.266, 185.531 315.201, 179.446 318.235, 177.120 318.836, 167.138 319.438, 157.156 320.039, 147.174 320.640, 137.192 321.242, 127.210 321.843, 117.228 322.445, 107.246 323.046, 97.264 323.648, 87.282 324.249, 77.301 324.579, 71.828 " fill="none" stroke="rgb(0, 0, 0)" stroke-linecap="butt" stroke-linejoin="round" stroke-opacity="1.0" stroke-width="3.0" />
            </g>
            <animate attributeName="display" begin="-2.500s" dur="5.000s" id="anim_View Layer_LineSet_000011" keyTimes="0.0;0.05;0.1;0.15;0.2;0.25;0.3;0.35;0.4;0.45;0.5;0.55;0.6;0.65;0.7;0.75;0.8;0.85;0.9;0.95;1" repeatCount="indefinite" values="none;none;none;none;none;none;none;none;none;none;none;none;none;none;none;none;none;none;none;inline;none" />
        </g>
        <g id="frame_0012" inkscape:groupmode="frame" inkscape:label="frame_0012">
            <g id="strokes" inkscape:groupmode="layer" inkscape:label="strokes">
                <path d=" M 157.265, 91.244 167.178, 92.557 177.092, 93.870 187.005, 95.183 196.919, 96.497 206.832, 97.810 216.745, 99.123 226.659, 100.436 236.572, 101.749 246.486, 103.063 256.399, 104.376 266.312, 105.689 276.226, 107.002 283.264, 107.934 " fill="none" stroke="rgb(0, 0, 0)" stroke-linecap="butt" stroke-linejoin="round" stroke-opacity="1.0" stroke-width="3.0" />
                <path d=" M 279.619, 223.158 279.936, 213.163 280.252, 203.168 280.568, 193.173 280.884, 183.178 281.200, 173.183 281.517, 163.188 281.833, 153.193 282.149, 143.198 282.465, 133.203 282.781, 123.208 283.097, 113.213 283.264, 107.934 288.803, 99.609 294.342, 91.283 299.881, 82.957 305.420, 74.631 310.959, 66.305 313.531, 62.441 " fill="none" stroke="rgb(0, 0, 0)" stroke-linecap="butt" stroke-linejoin="round" stroke-opacity="1.0" stroke-width="3.0" />
                <path d=" M 313.531, 62.441 303.592, 61.335 293.653, 60.230 283.714, 59.125 273.776, 58.020 263.837, 56.914 253.898, 55.809 243.959, 54.704 234.021, 53.599 224.082, 52.493 214.143, 51.388 204.050, 50.266 196.528, 56.854 189.005, 63.443 181.483, 70.032 173.960, 76.621 166.438, 83.210 158.915, 89.798 157.265, 91.244 157.862, 101.226 158.458, 111.208 159.055, 121.190 159.651, 131.173 160.248, 141.155 160.844, 151.137 161.441, 161.119 162.038, 171.101 162.634, 181.084 163.231, 191.066 163.884, 201.991 173.721, 203.790 183.557, 205.589 193.394, 207.388 203.231, 209.187 213.068, 210.986 222.905, 212.785 232.742, 214.585 242.578, 216.384 252.415, 218.183 262.252, 219.982 272.089, 221.781 279.619, 223.158 284.029, 214.183 288.439, 205.207 292.848, 196.232 297.258, 187.257 301.668, 178.282 306.077, 169.306 308.194, 164.998 308.714, 155.012 309.233, 145.025 309.753, 135.039 310.273, 125.052 310.792, 115.066 311.312, 105.079 311.832, 95.093 312.351, 85.106 312.871, 75.120 313.390, 65.133 313.531, 62.441 " fill="none" stroke="rgb(0, 0, 0)" stroke-linecap="butt" stroke-linejoin="round" stroke-opacity="1.0" stroke-width="3.0" />
            </g>
            <animate attributeName="display" begin="-2.250s" dur="5.000s" id="anim_View Layer_LineSet_000012" keyTimes="0.0;0.05;0.1;0.15;0.2;0.25;0.3;0.35;0.4;0.45;0.5;0.55;0.6;0.65;0.7;0.75;0.8;0.85;0.9;0.95;1" repeatCount="indefinite" values="none;none;none;none;none;none;none;none;none;none;none;none;none;none;none;none;none;none;none;inline;none" />
        </g>
        <g id="frame_0013" inkscape:groupmode="frame" inkscape:label="frame_0013">
            <g id="strokes" inkscape:groupmode="layer" inkscape:label="strokes">
                <path d=" M 172.963, 101.016 182.963, 100.969 192.962, 100.922 202.962, 100.875 212.962, 100.828 222.962, 100.781 232.962, 100.734 242.962, 100.686 252.962, 100.639 262.962, 100.592 272.962, 100.545 282.961, 100.498 292.961, 100.451 302.961, 100.404 307.422, 100.383 " fill="none" stroke="rgb(0, 0, 0)" stroke-linecap="butt" stroke-linejoin="round" stroke-opacity="1.0" stroke-width="3.0" />
                <path d=" M 307.422, 100.383 304.935, 90.697 302.449, 81.011 299.963, 71.325 297.477, 61.639 295.774, 55.006 285.774, 55.046 275.774, 55.086 265.774, 55.126 255.775, 55.166 245.775, 55.206 235.775, 55.246 225.775, 55.286 215.775, 55.326 205.775, 55.366 195.775, 55.405 185.775, 55.445 181.880, 55.461 179.959, 65.275 178.038, 75.088 176.117, 84.902 174.196, 94.716 172.963, 101.016 173.450, 111.005 173.937, 120.993 174.424, 130.981 174.911, 140.969 175.398, 150.957 175.885, 160.945 176.372, 170.933 176.860, 180.921 177.347, 190.910 177.834, 200.898 178.321, 210.886 178.493, 214.408 188.492, 214.343 198.492, 214.278 208.492, 214.213 218.492, 214.148 228.492, 214.083 238.491, 214.018 248.491, 213.953 258.491, 213.887 268.491, 213.822 278.491, 213.757 288.490, 213.692 298.490, 213.627 301.871, 213.605 302.361, 203.617 302.850, 193.629 303.340, 183.641 303.830, 173.653 304.319, 163.665 304.809, 153.677 305.299, 143.689 305.788, 133.701 306.278, 123.713 306.768, 113.725 307.257, 103.737 307.422, 100.383 " fill="none" stroke="rgb(0, 0, 0)" stroke-linecap="butt" stroke-linejoin="round" stroke-opacity="1.0" stroke-width="3.0" />
            </g>
            <animate attributeName="display" begin="-2.000s" dur="5.000s" id="anim_View Layer_LineSet_000013" keyTimes="0.0;0.05;0.1;0.15;0.2;0.25;0.3;0.35;0.4;0.45;0.5;0.55;0.6;0.65;0.7;0.75;0.8;0.85;0.9;0.95;1" repeatCount="indefinite" values="none;none;none;none;none;none;none;none;none;none;none;none;none;none;none;none;none;none;none;inline;none" />
        </g>
        <g id="frame_0014" inkscape:groupmode="frame" inkscape:label="frame_0014">
            <g id="strokes" inkscape:groupmode="layer" inkscape:label="strokes">
                <path d=" M 197.659, 108.348 207.558, 106.932 217.457, 105.515 227.356, 104.098 237.255, 102.682 247.155, 101.265 257.054, 99.849 266.953, 98.432 276.852, 97.016 286.751, 95.599 296.650, 94.183 306.549, 92.766 316.449, 91.349 322.447, 90.491 " fill="none" stroke="rgb(0, 0, 0)" stroke-linecap="butt" stroke-linejoin="round" stroke-opacity="1.0" stroke-width="3.0" />
                <path d=" M 322.447, 90.491 314.733, 84.127 307.020, 77.764 299.306, 71.400 291.592, 65.037 283.878, 58.673 276.164, 52.309 273.358, 49.995 263.429, 51.186 253.500, 52.377 243.572, 53.568 233.643, 54.759 223.714, 55.950 213.785, 57.142 203.856, 58.333 193.928, 59.524 183.999, 60.715 174.070, 61.906 164.509, 63.053 165.042, 73.039 165.576, 83.025 166.110, 93.011 166.643, 102.996 167.177, 112.982 167.711, 122.968 168.244, 132.954 168.778, 142.939 169.312, 152.925 169.845, 162.911 169.999, 165.791 174.747, 174.592 179.496, 183.393 184.244, 192.194 188.992, 200.995 193.740, 209.796 198.488, 218.597 201.230, 223.680 211.041, 221.742 220.851, 219.804 230.661, 217.865 240.472, 215.927 250.282, 213.989 260.093, 212.051 269.903, 210.113 279.713, 208.175 289.524, 206.236 299.334, 204.298 309.145, 202.360 315.867, 201.032 316.462, 191.050 317.056, 181.067 317.650, 171.085 318.244, 161.103 318.838, 151.120 319.433, 141.138 320.027, 131.156 320.621, 121.173 321.215, 111.191 321.809, 101.209 322.447, 90.491 " fill="none" stroke="rgb(0, 0, 0)" stroke-linecap="butt" stroke-linejoin="round" stroke-opacity="1.0" stroke-width="3.0" />
                <path d=" M 164.509, 63.053 170.415, 71.123 176.321, 79.193 182.227, 87.262 188.133, 95.332 194.039, 103.402 197.659, 108.348 197.968, 118.343 198.278, 128.339 198.587, 138.334 198.897, 148.329 199.206, 158.324 199.516, 168.319 199.825, 178.315 200.135, 188.310 200.445, 198.305 200.754, 208.300 201.064, 218.295 201.230, 223.680 " fill="none" stroke="rgb(0, 0, 0)" stroke-linecap="butt" stroke-linejoin="round" stroke-opacity="1.0" stroke-width="3.0" />
            </g>
            <animate attributeName="display" begin="-1.750s" dur="5.000s" id="anim_View Layer_LineSet_000014" keyTimes="0.0;0.05;0.1;0.15;0.2;0.25;0.3;0.35;0.4;0.45;0.5;0.55;0.6;0.65;0.7;0.75;0.8;0.85;0.9;0.95;1" repeatCount="indefinite" values="none;none;none;none;none;none;none;none;none;none;none;none;none;none;none;none;none;none;none;inline;none" />
        </g>
        <g id="frame_0015" inkscape:groupmode="frame" inkscape:label="frame_0015">
            <g id="strokes" inkscape:groupmode="layer" inkscape:label="strokes">
                <path d=" M 228.399, 111.993 237.906, 108.891 247.412, 105.788 256.918, 102.685 266.425, 99.582 275.931, 96.479 285.438, 93.376 294.944, 90.274 304.451, 87.171 313.957, 84.068 323.464, 80.965 327.320, 79.706 " fill="none" stroke="rgb(0, 0, 0)" stroke-linecap="butt" stroke-linejoin="round" stroke-opacity="1.0" stroke-width="3.0" />
                <path d=" M 327.320, 79.706 318.053, 75.948 308.786, 72.189 299.520, 68.431 290.253, 64.672 280.986, 60.914 271.719, 57.155 262.452, 53.397 253.185, 49.639 248.311, 47.662 238.642, 50.213 228.973, 52.765 219.304, 55.316 209.635, 57.868 199.966, 60.419 190.297, 62.971 180.628, 65.523 170.959, 68.074 161.290, 70.626 153.981, 72.555 154.593, 82.536 155.205, 92.517 155.817, 102.498 156.429, 112.480 157.041, 122.461 157.653, 132.442 158.265, 142.423 158.877, 152.405 159.489, 162.386 160.101, 172.367 160.449, 178.056 168.532, 183.944 176.615, 189.832 184.698, 195.720 192.780, 201.608 200.863, 207.496 208.946, 213.384 217.029, 219.272 225.111, 225.160 229.388, 228.276 238.508, 224.173 247.628, 220.070 256.747, 215.967 265.867, 211.865 274.986, 207.762 284.106, 203.659 293.226, 199.556 302.345, 195.454 311.465, 191.351 320.593, 187.244 321.217, 177.264 321.842, 167.283 322.466, 157.303 323.090, 147.322 323.715, 137.342 324.339, 127.361 324.963, 117.381 325.588, 107.400 326.212, 97.420 326.836, 87.439 327.320, 79.706 " fill="none" stroke="rgb(0, 0, 0)" stroke-linecap="butt" stroke-linejoin="round" stroke-opacity="1.0" stroke-width="3.0" />
                <path d=" M 153.981, 72.555 162.817, 77.237 171.653, 81.920 180.489, 86.603 189.325, 91.285 198.161, 95.968 206.996, 100.651 215.832, 105.333 224.668, 110.016 228.399, 111.993 228.484, 121.993 228.569, 131.993 228.654, 141.992 228.739, 151.992 228.824, 161.992 228.910, 171.991 228.995, 181.991 229.080, 191.990 229.165, 201.990 229.250, 211.990 229.335, 221.989 229.388, 228.276 " fill="none" stroke="rgb(0, 0, 0)" stroke-linecap="butt" stroke-linejoin="round" stroke-opacity="1.0" stroke-width="3.0" />
            </g>
            <animate attributeName="display" begin="-1.500s" dur="5.000s" id="anim_View Layer_LineSet_000015" keyTimes="0.0;0.05;0.1;0.15;0.2;0.25;0.3;0.35;0.4;0.45;0.5;0.55;0.6;0.65;0.7;0.75;0.8;0.85;0.9;0.95;1" repeatCount="indefinite" values="none;none;none;none;none;none;none;none;none;none;none;none;none;none;none;none;none;none;none;inline;none" />
        </g>
        <g id="frame_0016" inkscape:groupmode="frame" inkscape:label="frame_0016">
            <g id="strokes" inkscape:groupmode="layer" inkscape:label="strokes">
                <path d=" M 260.795, 111.280 269.067, 105.661 277.340, 100.043 285.612, 94.424 293.884, 88.806 302.157, 83.187 310.429, 77.569 318.702, 71.950 322.554, 69.334 " fill="none" stroke="rgb(0, 0, 0)" stroke-linecap="butt" stroke-linejoin="round" stroke-opacity="1.0" stroke-width="3.0" />
                <path d=" M 322.554, 69.334 312.772, 67.257 302.990, 65.180 293.208, 63.103 283.426, 61.026 273.644, 58.949 263.862, 56.872 254.080, 54.795 244.299, 52.718 234.517, 50.641 224.735, 48.564 222.600, 48.110 213.648, 52.567 204.696, 57.024 195.744, 61.481 186.792, 65.937 177.841, 70.394 168.889, 74.851 159.937, 79.307 152.148, 83.185 152.777, 93.165 153.407, 103.145 154.037, 113.126 154.666, 123.106 155.296, 133.086 155.926, 143.066 156.555, 153.046 157.185, 163.026 157.815, 173.006 158.444, 182.987 158.994, 191.701 168.413, 195.060 177.832, 198.419 187.251, 201.779 196.670, 205.138 206.089, 208.497 215.508, 211.856 224.926, 215.216 234.345, 218.575 243.764, 221.934 253.183, 225.293 259.025, 227.377 266.342, 220.560 273.658, 213.743 280.975, 206.926 288.291, 200.109 295.607, 193.292 302.924, 186.476 310.240, 179.659 316.415, 173.905 317.001, 163.923 317.587, 153.940 318.173, 143.957 318.759, 133.974 319.345, 123.991 319.931, 114.008 320.517, 104.026 321.103, 94.043 321.689, 84.060 322.275, 74.077 322.554, 69.334 " fill="none" stroke="rgb(0, 0, 0)" stroke-linecap="butt" stroke-linejoin="round" stroke-opacity="1.0" stroke-width="3.0" />
                <path d=" M 152.148, 83.185 161.829, 85.689 171.511, 88.192 181.192, 90.696 190.874, 93.199 200.555, 95.703 210.237, 98.206 219.918, 100.710 229.600, 103.213 239.282, 105.717 248.963, 108.220 258.645, 110.724 260.795, 111.280 260.643, 121.279 260.490, 131.278 260.338, 141.276 260.185, 151.275 260.033, 161.274 259.881, 171.273 259.728, 181.272 259.576, 191.271 259.423, 201.269 259.271, 211.268 259.118, 221.267 259.025, 227.377 " fill="none" stroke="rgb(0, 0, 0)" stroke-linecap="butt" stroke-linejoin="round" stroke-opacity="1.0" stroke-width="3.0" />
            </g>
            <animate attributeName="display" begin="-1.250s" dur="5.000s" id="anim_View Layer_LineSet_000016" keyTimes="0.0;0.05;0.1;0.15;0.2;0.25;0.3;0.35;0.4;0.45;0.5;0.55;0.6;0.65;0.7;0.75;0.8;0.85;0.9;0.95;1" repeatCount="indefinite" values="none;none;none;none;none;none;none;none;none;none;none;none;none;none;none;none;none;none;none;inline;none" />
        </g>
        <g id="frame_0017" inkscape:groupmode="frame" inkscape:label="frame_0017">
            <g id="strokes" inkscape:groupmode="layer" inkscape:label="strokes">
                <path d=" M 290.035, 106.342 293.959, 97.144 297.882, 87.946 301.805, 78.747 305.729, 69.549 309.641, 60.376 " fill="none" stroke="rgb(0, 0, 0)" stroke-linecap="butt" stroke-linejoin="round" stroke-opacity="1.0" stroke-width="3.0" />
                <path d=" M 309.641, 60.376 299.674, 59.567 289.707, 58.757 279.740, 57.947 269.773, 57.138 259.805, 56.328 249.838, 55.519 239.871, 54.709 229.904, 53.900 219.937, 53.090 209.969, 52.280 200.002, 51.471 198.171, 51.322 191.514, 58.785 184.858, 66.248 178.202, 73.711 171.546, 81.174 164.890, 88.637 160.253, 93.837 160.829, 103.820 161.405, 113.803 161.982, 123.787 162.558, 133.770 163.134, 143.754 163.710, 153.737 164.286, 163.720 164.862, 173.704 165.439, 183.687 166.015, 193.671 166.591, 203.654 166.686, 205.292 176.598, 206.611 186.511, 207.930 196.423, 209.249 206.336, 210.568 216.249, 211.887 226.161, 213.206 236.074, 214.525 245.987, 215.844 255.899, 217.163 265.812, 218.482 275.725, 219.801 285.840, 221.147 288.882, 211.621 291.924, 202.095 294.966, 192.569 298.008, 183.043 301.050, 173.516 304.092, 163.990 304.625, 162.324 305.116, 152.336 305.607, 142.348 306.099, 132.360 306.590, 122.372 307.082, 112.384 307.573, 102.396 308.065, 92.408 308.556, 82.420 309.048, 72.432 309.539, 62.445 309.641, 60.376 " fill="none" stroke="rgb(0, 0, 0)" stroke-linecap="butt" stroke-linejoin="round" stroke-opacity="1.0" stroke-width="3.0" />
                <path d=" M 160.253, 93.837 170.207, 94.796 180.161, 95.755 190.115, 96.714 200.069, 97.673 210.022, 98.632 219.976, 99.591 229.930, 100.551 239.884, 101.510 249.838, 102.469 259.792, 103.428 269.746, 104.387 279.700, 105.346 290.035, 106.342 289.670, 116.335 289.305, 126.329 288.940, 136.322 288.575, 146.315 288.209, 156.309 287.844, 166.302 287.479, 176.295 287.114, 186.289 286.749, 196.282 286.384, 206.275 286.018, 216.269 285.840, 221.147 " fill="none" stroke="rgb(0, 0, 0)" stroke-linecap="butt" stroke-linejoin="round" stroke-opacity="1.0" stroke-width="3.0" />
            </g>
            <animate attributeName="display" begin="-1.000s" dur="5.000s" id="anim_View Layer_LineSet_000017" keyTimes="0.0;0.05;0.1;0.15;0.2;0.25;0.3;0.35;0.4;0.45;0.5;0.55;0.6;0.65;0.7;0.75;0.8;0.85;0.9;0.95;1" repeatCount="indefinite" values="none;none;none;none;none;none;none;none;none;none;none;none;none;none;none;none;none;none;none;inline;none" />
        </g>
        <g id="frame_0018" inkscape:groupmode="frame" inkscape:label="frame_0018">
            <g id="strokes" inkscape:groupmode="layer" inkscape:label="strokes">
                <path d=" M 312.105, 98.073 307.746, 89.072 303.388, 80.072 299.030, 71.072 294.671, 62.072 290.527, 53.513 280.532, 53.833 270.537, 54.153 260.542, 54.473 250.547, 54.794 240.552, 55.114 230.557, 55.434 220.563, 55.754 210.568, 56.074 200.573, 56.394 190.578, 56.714 180.583, 57.035 177.007, 57.149 177.305, 67.145 177.603, 77.140 177.901, 87.136 178.199, 97.131 178.378, 103.133 178.826, 113.123 179.275, 123.113 179.723, 133.103 180.172, 143.093 180.621, 153.083 181.069, 163.073 181.518, 173.063 181.966, 183.053 182.415, 193.043 182.863, 203.033 183.312, 213.022 183.494, 217.089 193.481, 216.567 203.467, 216.045 213.453, 215.523 223.440, 215.001 233.426, 214.479 243.413, 213.957 253.399, 213.435 263.385, 212.913 273.372, 212.391 283.358, 211.869 293.344, 211.348 303.331, 210.826 306.211, 210.675 306.733, 200.689 307.256, 190.702 307.779, 180.716 308.302, 170.730 308.824, 160.743 309.347, 150.757 309.870, 140.771 310.392, 130.784 310.915, 120.798 311.438, 110.812 311.961, 100.825 312.105, 98.073 " fill="none" stroke="rgb(0, 0, 0)" stroke-linecap="butt" stroke-linejoin="round" stroke-opacity="1.0" stroke-width="3.0" />
                <path d=" M 178.378, 103.133 188.371, 102.755 198.364, 102.377 208.356, 101.999 218.349, 101.621 228.342, 101.242 238.335, 100.864 248.328, 100.486 258.321, 100.108 268.313, 99.730 278.306, 99.352 288.299, 98.973 298.292, 98.595 308.285, 98.217 312.105, 98.073 " fill="none" stroke="rgb(0, 0, 0)" stroke-linecap="butt" stroke-linejoin="round" stroke-opacity="1.0" stroke-width="3.0" />
            </g>
            <animate attributeName="display" begin="-0.750s" dur="5.000s" id="anim_View Layer_LineSet_000018" keyTimes="0.0;0.05;0.1;0.15;0.2;0.25;0.3;0.35;0.4;0.45;0.5;0.55;0.6;0.65;0.7;0.75;0.8;0.85;0.9;0.95;1" repeatCount="indefinite" values="none;none;none;none;none;none;none;none;none;none;none;none;none;none;none;none;none;none;none;inline;none" />
        </g>
        <g id="frame_0019" inkscape:groupmode="frame" inkscape:label="frame_0019">
            <g id="strokes" inkscape:groupmode="layer" inkscape:label="strokes">
                <path d=" M 324.620, 87.823 316.328, 82.233 308.037, 76.643 299.745, 71.053 291.454, 65.462 283.162, 59.872 274.871, 54.282 267.265, 49.154 257.379, 50.656 247.492, 52.158 237.606, 53.660 227.719, 55.162 217.832, 56.664 207.946, 58.166 198.059, 59.668 188.173, 61.170 178.286, 62.672 168.400, 64.174 161.157, 65.275 161.715, 75.259 162.273, 85.244 162.832, 95.228 163.390, 105.212 163.948, 115.197 164.506, 125.181 165.064, 135.166 165.622, 145.150 166.181, 155.134 166.739, 165.119 166.937, 168.664 172.797, 176.768 178.656, 184.871 184.516, 192.975 190.375, 201.078 196.235, 209.182 202.094, 217.285 207.900, 225.314 217.597, 222.874 227.295, 220.434 236.993, 217.994 246.691, 215.554 256.388, 213.113 266.086, 210.673 275.784, 208.233 285.481, 205.793 295.179, 203.353 304.877, 200.912 314.574, 198.472 317.924, 197.629 318.533, 187.648 319.141, 177.666 319.750, 167.685 320.359, 157.703 320.967, 147.722 321.576, 137.740 322.185, 127.759 322.793, 117.778 323.402, 107.796 324.010, 97.815 324.620, 87.823 " fill="none" stroke="rgb(0, 0, 0)" stroke-linecap="butt" stroke-linejoin="round" stroke-opacity="1.0" stroke-width="3.0" />
                <path d=" M 161.157, 65.275 168.180, 72.393 175.203, 79.512 182.226, 86.631 189.249, 93.750 196.273, 100.868 203.296, 107.987 204.930, 109.644 " fill="none" stroke="rgb(0, 0, 0)" stroke-linecap="butt" stroke-linejoin="round" stroke-opacity="1.0" stroke-width="3.0" />
                <path d=" M 207.900, 225.314 207.643, 215.318 207.386, 205.321 207.130, 195.324 206.873, 185.328 206.616, 175.331 206.360, 165.334 206.103, 155.337 205.846, 145.341 205.590, 135.344 205.333, 125.347 205.077, 115.351 204.930, 109.644 214.768, 107.850 224.606, 106.057 234.444, 104.263 244.281, 102.470 254.119, 100.676 263.957, 98.883 273.795, 97.089 283.633, 95.296 293.471, 93.502 303.309, 91.709 313.146, 89.915 322.984, 88.122 324.620, 87.823 " fill="none" stroke="rgb(0, 0, 0)" stroke-linecap="butt" stroke-linejoin="round" stroke-opacity="1.0" stroke-width="3.0" />
            </g>
            <animate attributeName="display" begin="-0.500s" dur="5.000s" id="anim_View Layer_LineSet_000019" keyTimes="0.0;0.05;0.1;0.15;0.2;0.25;0.3;0.35;0.4;0.45;0.5;0.55;0.6;0.65;0.7;0.75;0.8;0.85;0.9;0.95;1" repeatCount="indefinite" values="none;none;none;none;none;none;none;none;none;none;none;none;none;none;none;none;none;none;none;inline;none" />
        </g>
        <g id="frame_0020" inkscape:groupmode="frame" inkscape:label="frame_0020">
            <g id="strokes" inkscape:groupmode="layer" inkscape:label="strokes">
                <path d=" M 326.986, 77.030 317.538, 73.753 308.090, 70.477 298.642, 67.200 289.194, 63.924 279.746, 60.647 270.298, 57.371 260.850, 54.094 251.402, 50.817 241.870, 47.512 232.318, 50.470 222.765, 53.428 213.213, 56.387 203.660, 59.345 194.108, 62.303 184.556, 65.262 175.003, 68.220 165.451, 71.178 155.898, 74.136 152.645, 75.144 153.267, 85.125 153.890, 95.105 154.513, 105.086 155.135, 115.066 155.758, 125.047 156.380, 135.028 157.003, 145.008 157.625, 154.989 158.248, 164.969 158.870, 174.950 159.272, 181.387 167.815, 186.585 176.358, 191.783 184.901, 196.981 193.443, 202.179 201.986, 207.377 210.529, 212.575 219.072, 217.773 227.615, 222.971 236.829, 228.577 245.643, 223.853 254.456, 219.128 263.270, 214.404 272.083, 209.680 280.897, 204.955 289.711, 200.231 298.524, 195.506 307.338, 190.782 316.151, 186.057 320.345, 183.810 320.965, 173.829 321.586, 163.848 322.207, 153.867 322.828, 143.887 323.449, 133.906 324.069, 123.925 324.690, 113.945 325.311, 103.964 325.932, 93.983 326.552, 84.002 326.986, 77.030 " fill="none" stroke="rgb(0, 0, 0)" stroke-linecap="butt" stroke-linejoin="round" stroke-opacity="1.0" stroke-width="3.0" />
                <path d=" M 152.645, 75.144 161.791, 79.188 170.937, 83.231 180.083, 87.275 189.229, 91.319 198.375, 95.362 207.521, 99.406 216.667, 103.449 225.813, 107.493 234.959, 111.537 236.533, 112.233 " fill="none" stroke="rgb(0, 0, 0)" stroke-linecap="butt" stroke-linejoin="round" stroke-opacity="1.0" stroke-width="3.0" />
                <path d=" M 236.829, 228.577 236.804, 218.577 236.778, 208.577 236.753, 198.577 236.727, 188.577 236.702, 178.578 236.676, 168.578 236.651, 158.578 236.626, 148.578 236.600, 138.578 236.575, 128.578 236.549, 118.578 236.533, 112.233 245.852, 108.606 255.171, 104.979 264.490, 101.352 273.810, 97.725 283.129, 94.098 292.448, 90.472 301.767, 86.845 311.086, 83.218 320.405, 79.591 326.986, 77.030 " fill="none" stroke="rgb(0, 0, 0)" stroke-linecap="butt" stroke-linejoin="round" stroke-opacity="1.0" stroke-width="3.0" />
            </g>
            <animate attributeName="display" begin="-0.250s" dur="5.000s" id="anim_View Layer_LineSet_000020" keyTimes="0.0;0.05;0.1;0.15;0.2;0.25;0.3;0.35;0.4;0.45;0.5;0.55;0.6;0.65;0.7;0.75;0.8;0.85;0.9;0.95;1" repeatCount="indefinite" values="none;none;none;none;none;none;none;none;none;none;none;none;none;none;none;none;none;none;none;inline;none" />
        </g>
    </g>
</svg>
