<?xml version="1.0" encoding="UTF-8" standalone="no"?>
<!DOCTYPE svg PUBLIC "-//W3C//DTD SVG 1.1//EN" "http://www.w3.org/Graphics/SVG/1.1/DTD/svg11.dtd">
<svg width="100%" height="100%" viewBox="0 0 52 43" version="1.1" xmlns="http://www.w3.org/2000/svg" xmlns:xlink="https://www.w3.org/1999/xlink" xml:space="preserve" xmlns:serif="https://www.serif.com/" style="fill-rule:evenodd;clip-rule:evenodd;stroke-linecap:square;stroke-linejoin:bevel;">
    <g transform="matrix(1,0,0,1,-651.077,-208.847)">
        <g>
            <g transform="matrix(-0.0825254,-1.01064e-17,1.01064e-17,-0.0825254,702.063,251.839)">
                <rect x="0" y="0" width="337.667" height="282.667" style="fill:none;"/>
            </g>
            <g transform="matrix(-0.250077,-3.06256e-17,3.06256e-17,-0.250077,707.496,255.346)">
                <path d="M122.921,98.396L168.521,19.416L214.118,98.396L122.921,98.396Z" style="fill:none;fill-rule:nonzero;stroke:black;stroke-width:0.4px;"/>
            </g>
            <g transform="matrix(-0.0825254,-1.01064e-17,1.01064e-17,-0.0825254,679.308,251.839)">
                <rect x="0" y="0" width="337.667" height="282.667" style="fill:none;"/>
            </g>
            <g transform="matrix(0.0848253,0,-1.96587e-33,0.0849222,651.077,208.847)">
                <rect x="0" y="0" width="337.667" height="282.667" style="fill:none;"/>
            </g>
            <g transform="matrix(0.0825254,1.54074e-33,0,0.0825254,674.214,209.311)">
                <path d="M214.528,257.756L260.127,178.774L305.727,257.756L214.528,257.756Z" style="fill:none;fill-rule:nonzero;stroke:black;stroke-width:1.21px;"/>
            </g>
            <g transform="matrix(0.0825254,1.54074e-33,0,0.0825254,670.517,202.731)">
                <path d="M214.528,257.756L260.127,178.774L305.727,257.756L214.528,257.756Z" style="fill:none;fill-rule:nonzero;stroke:black;stroke-width:1.21px;"/>
            </g>
            <g transform="matrix(0.0825254,1.54074e-33,0,0.0825254,666.781,196.176)">
                <path d="M214.528,257.756L260.127,178.774L305.727,257.756L214.528,257.756Z" style="fill:none;fill-rule:nonzero;stroke:black;stroke-width:1.21px;"/>
            </g>
            <g transform="matrix(0.0825254,1.54074e-33,0,0.0825254,666.674,209.311)">
                <path d="M214.528,257.756L260.127,178.774L305.727,257.756L214.528,257.756Z" style="fill:none;fill-rule:nonzero;stroke:black;stroke-width:1.21px;"/>
            </g>
            <g transform="matrix(0.0825254,1.54074e-33,0,0.0825254,662.977,202.731)">
                <path d="M214.528,257.756L260.127,178.774L305.727,257.756L214.528,257.756Z" style="fill:none;fill-rule:nonzero;stroke:black;stroke-width:1.21px;"/>
            </g>
            <g transform="matrix(0.0825254,1.54074e-33,0,0.0825254,659.211,209.311)">
                <path d="M214.528,257.756L260.127,178.774L305.727,257.756L214.528,257.756Z" style="fill:none;fill-rule:nonzero;stroke:black;stroke-width:1.21px;"/>
            </g>
            <g transform="matrix(0.0825254,1.54074e-33,0,0.0825254,674.214,209.311)">
                <rect x="0" y="0" width="337.667" height="282.667" style="fill:none;"/>
            </g>
            <g transform="matrix(1,2.44929e-16,-2.44929e-16,1,23.1734,0.265166)">
                <g transform="matrix(0.0980916,0.0312523,-0.0312523,0.0980916,648.981,242.724)">
                    <circle cx="168.317" cy="18.147" r="6.044"/>
                </g>
                <g transform="matrix(1,0,0,1,0,0.0395726)">
                    <g transform="matrix(0.0980916,0.0312523,-0.0312523,0.0980916,652.745,236.194)">
                        <circle cx="168.317" cy="18.147" r="6.044"/>
                    </g>
                    <g transform="matrix(0.0980916,0.0312523,-0.0312523,0.0980916,645.251,236.194)">
                        <circle cx="168.317" cy="18.147" r="6.044"/>
                    </g>
                </g>
                <g transform="matrix(1,0,0,1,0,0.204331)">
                    <g transform="matrix(0.0980916,0.0312523,-0.0312523,0.0980916,656.412,229.539)">
                        <circle cx="168.317" cy="18.147" r="6.044"/>
                    </g>
                    <g transform="matrix(0.0980916,0.0312523,-0.0312523,0.0980916,649.052,229.539)">
                        <circle cx="168.317" cy="18.147" r="6.044"/>
                    </g>
                    <g transform="matrix(0.0980916,0.0312523,-0.0312523,0.0980916,641.56,229.539)">
                        <circle cx="168.317" cy="18.147" r="6.044"/>
                    </g>
                </g>
                <g>
                    <g transform="matrix(0.0980916,0.0312523,-0.0312523,0.0980916,637.951,223.252)">
                        <circle cx="168.317" cy="18.147" r="6.044"/>
                    </g>
                    <g transform="matrix(0.0980916,0.0312523,-0.0312523,0.0980916,645.215,223.252)">
                        <circle cx="168.317" cy="18.147" r="6.044"/>
                    </g>
                    <g transform="matrix(0.0980916,0.0312523,-0.0312523,0.0980916,652.838,223.252)">
                        <circle cx="168.317" cy="18.147" r="6.044"/>
                    </g>
                    <g transform="matrix(0.0980916,0.0312523,-0.0312523,0.0980916,660.145,223.252)">
                        <circle cx="168.317" cy="18.147" r="6.044"/>
                    </g>
                </g>
            </g>
            <g transform="matrix(0.254665,0,-5.902e-33,0.254956,599.152,165.02)">
                <path d="M214.528,257.756L260.127,178.774L305.727,257.756L214.528,257.756Z" style="fill-rule:nonzero;"/>
            </g>
        </g>
    </g>
</svg>
